<svg width="348" height="348" viewBox="0 0 348 348" fill="none" xmlns="http://www.w3.org/2000/svg">
<path fill-rule="evenodd" clip-rule="evenodd" d="M171.535 4.25C171.229 6.038 170.08 13.255 168.98 20.29C156.721 98.745 141.805 128.46 105.5 146.749C88.648 155.238 59.4 162.869 20.29 168.98C0.0050087 172.15 1.00001 171.891 1.00001 174C1.00001 176.109 0.0050087 175.85 20.29 179.02C98.745 191.279 128.46 206.195 146.749 242.5C155.238 259.352 162.869 288.6 168.98 327.71C172.143 347.952 171.897 347 173.966 347C176.125 347 175.96 347.645 179.496 325.5C196.621 218.251 217.613 196.931 322.794 179.955C348.101 175.87 347 176.142 347 173.966C347 172.631 346.063 171.93 343.75 171.534C341.962 171.228 331.256 169.429 319.957 167.537C263.644 158.107 237.032 148.145 218.467 129.546C199.383 110.428 188.968 81.821 179.496 22.5C175.96 0.355001 176.125 1 173.966 1C172.631 1 171.93 1.936 171.535 4.25Z" fill="url(#paint0_linear_1840_1440)"/>
<defs>
<linearGradient id="paint0_linear_1840_1440" x1="131" y1="135.5" x2="286.5" y2="300.5" gradientUnits="userSpaceOnUse">
<stop stop-color="#000"/>
<stop offset="1" stop-color="#000"/>
</linearGradient>
</defs>
</svg>
